Coordinates
version=1
nRows=26
nColumns=24
inDegrees=yes

Units are S.I. units (second, meters, Newtons, ...)
Angles are in degrees.

endheader
time	pelvis_tilt	pelvis_list	pelvis_rotation	pelvis_tx	pelvis_ty	pelvis_tz	hip_flexion_r	hip_adduction_r	hip_rotation_r	knee_angle_r	ankle_angle_r	subtalar_angle_r	mtp_angle_r	hip_flexion_l	hip_adduction_l	hip_rotation_l	knee_angle_l	ankle_angle_l	subtalar_angle_l	mtp_angle_l	lumbar_extension	lumbar_bending	lumbar_rotation
      6.18000000	      7.36201185	     -0.70375239	      3.75582962	      0.76563190	      0.88110980	      0.23193351	    -33.43954963	      3.02591759	     -7.77110885	     -9.26703144	     13.85823472	     10.87508910	      0.00000000	     16.41098989	      2.93073636	      7.92963503	     -7.09568847	      2.48026794	    -14.10036875	      0.00000000	    -27.85248630	      0.62561389	      3.86110581
      6.19000000	      7.04920986	     -0.11424385	      4.17856288	      0.78334180	      0.88008730	      0.22899219	    -32.42820414	      2.21676196	     -9.54586971	    -12.17032238	     11.92006349	     11.65998098	      0.00000000	     17.73813871	      3.88628224	      6.14438295	    -10.54655191	      2.82876397	    -12.13148532	      0.00000000	    -27.33080588	      0.00085098	      3.44558508
      6.20000000	      6.83795675	      0.45647835	      4.63541387	      0.80076645	      0.87938889	      0.22621813	    -31.38793984	      1.46107177	    -10.59963439	    -15.19871828	      9.32120923	     11.45752961	      0.00000000	     19.00821803	      4.69529961	      4.49979676	    -14.11165403	      3.70732863	     -9.98744747	      0.00000000	    -27.01911191	     -0.62878288	      2.98772063
      6.21000000	      6.77885640	      0.97337449	      5.08357338	      0.81783953	      0.87905362	      0.22364798	    -30.29900512	      0.77428197	    -11.13930939	    -18.44918617	      6.33964193	     10.64957464	      0.00000000	     20.07795596	      5.33268935	      3.08824320	    -17.64916010	      4.98214452	     -7.92072005	      0.00000000	    -26.96533583	     -1.21426109	      2.58471857
      6.22000000	      6.90924181	      1.42872327	      5.49793043	      0.83460102	      0.87910893	      0.22126890	    -29.21176256	      0.16915045	    -11.27046149	    -21.88135176	      3.12783400	      9.52370624	      0.00000000	     20.78787597	      5.81840079	      1.95991690	    -20.97921413	      6.72272516	     -6.02921226	      0.00000000	    -27.18438835	     -1.72693447	      2.18338033
      6.23000000	      7.21445273	      1.85753937	      5.80953880	      0.85105746	      0.87955522	      0.21910016	    -28.09475398	     -0.43076206	    -11.12354295	    -25.52357325	      0.02700142	      8.34210274	      0.00000000	     21.04475001	      6.18896806	      0.98462805	    -23.91498913	      8.71083586	     -4.35506423	      0.00000000	    -27.63519397	     -2.20442465	      1.82766808
      6.24000000	      7.57620394	      2.24019846	      6.00416031	      0.86723554	      0.88028221	      0.21706335	    -26.82567608	     -1.04136355	    -10.82462027	    -29.35752998	     -2.67769919	      7.33707045	      0.00000000	     20.89673606	      6.46619046	      0.16244594	    -26.31256057	     10.78549108	     -2.97428896	      0.00000000	    -28.14071096	     -2.61605853	      1.51835020
      6.25000000	      7.93057222	      2.60863711	      6.05194002	      0.88318416	      0.88128539	      0.21512550	    -25.35760946	     -1.72627103	    -10.44596856	    -33.33175669	     -4.72938272	      6.64194254	      0.00000000	     20.35512892	      6.70223771	     -0.57676681	    -28.06271658	     12.83819459	     -1.87334102	      0.00000000	    -28.60450494	     -3.00800669	      1.22061942
      6.26000000	      8.21543202	      2.96415761	      5.95143283	      0.89889569	      0.88256909	      0.21325579	    -23.63136090	     -2.51092617	    -10.05986144	    -37.38875380	     -5.94797159	      6.32847678	      0.00000000	     19.48824097	      6.92318219	     -1.25992706	    -29.13687095	     14.74573545	     -1.01292961	      0.00000000	    -28.94932658	     -3.38561383	      0.97238936
      6.27000000	      8.39693528	      3.32043486	      5.70043490	      0.91440790	      0.88415833	      0.21146838	    -21.64031475	     -3.40136976	     -9.65177426	    -41.42188113	     -6.25900582	      6.35213643	      0.00000000	     18.36449853	      7.16366006	     -1.90151306	    -29.56674415	     16.41129757	     -0.40066844	      0.00000000	    -29.12886798	     -3.78222128	      0.73431747
      6.28000000	      8.45862988	      3.63357024	      5.33707936	      0.92973556	      0.88604990	      0.20975674	    -19.40539023	     -4.31884813	     -9.22462659	    -45.29132799	     -5.71412120	      6.60391591	      0.00000000	     17.08620855	      7.39810500	     -2.47384417	    -29.47638384	     17.86132699	      0.06540327	      0.00000000	    -29.11573832	     -4.14780335	      0.56694884
      6.29000000	      8.40472756	      3.87810280	      4.90422200	      0.94487583	      0.88824426	      0.20812804	    -16.97571967	     -5.18582044	     -8.77241166	    -48.86908255	     -4.37569269	      7.03068492	      0.00000000	     15.73634965	      7.61126558	     -2.96202506	    -28.99553629	     19.04027704	      0.35855395	      0.00000000	    -28.91527164	     -4.45036261	      0.43944825
      6.30000000	      8.23304854	      4.01775634	      4.47064817	      0.95983401	      0.89072406	      0.20656739	    -14.39984110	     -5.89745294	     -8.30493072	    -52.04281635	     -2.41468593	      7.51702801	      0.00000000	     14.37748398	      7.78771124	     -3.25240891	    -28.22002623	     19.93099709	      0.47380028	      0.00000000	    -28.53793462	     -4.64586065	      0.34270100
      6.31000000	      7.98510830	      4.04183253	      4.08758140	      0.97458604	      0.89347156	      0.20503389	    -11.76332758	     -6.41855645	     -7.89994668	    -54.74847789	     -0.04940527	      7.98796284	      0.00000000	     13.03191733	      7.91071822	     -3.32805030	    -27.26632604	     20.54257364	      0.36300935	      0.00000000	    -28.05213774	     -4.70177812	      0.24871563
      6.32000000	      7.67914906	      3.94727355	      3.79987399	      0.98912559	      0.89643003	      0.20349966	     -9.11779156	     -6.72831189	     -7.60974256	    -56.96126807	      2.49522028	      8.36258507	      0.00000000	     11.71422775	      7.96785605	     -3.16743490	    -26.20194608	     20.92334308	      0.05078578	      0.00000000	    -27.49599716	     -4.60436850	      0.09948652
      6.33000000	      7.30359721	      3.74803751	      3.65074337	      1.00346262	      0.89950089	      0.20190395	     -6.48171851	     -6.84857402	     -7.50271561	    -58.67724773	      5.02284548	      8.54243585	      0.00000000	     10.44180311	      7.96984666	     -2.72930724	    -25.04431558	     21.05310845	     -0.44486743	      0.00000000	    -26.86956740	     -4.35633115	     -0.11468058
      6.34000000	      6.94828172	      3.44148194	      3.58733174	      1.01760251	      0.90270378	      0.20031400	     -3.95500338	     -6.79084317	     -7.54069699	    -59.91101891	      7.40587812	      8.60246016	      0.00000000	      9.12440936	      7.86006807	     -2.18301247	    -23.80712894	     21.05582507	     -0.99026965	      0.00000000	    -26.29146472	     -3.96620909	     -0.37171743
      6.35000000	      6.51917911	      3.13314561	      3.67422183	      1.03157600	      0.90581580	      0.19860656	     -1.45709563	     -6.70472860	     -7.81708183	    -60.71122261	      9.42592226	      8.28983871	      0.00000000	      7.82835785	      7.79363622	     -1.34321258	    -22.43315404	     20.75832412	     -1.91400229	      0.00000000	    -25.66350249	     -3.53828978	     -0.86300052
      6.36000000	      6.13596803	      2.76954686	      3.84149291	      1.04539177	      0.90890741	      0.19689024	      0.88533051	     -6.54722716	     -8.26768124	    -61.08849638	     11.21812227	      7.95280258	      0.00000000	      6.46173749	      7.62999588	     -0.51865651	    -20.98815235	     20.41606501	     -2.67928442	      0.00000000	    -25.12624824	     -3.02340980	     -1.41131159
      6.37000000	      5.79280594	      2.41110405	      4.02592751	      1.05907365	      0.91188435	      0.19522982	      3.09491015	     -6.38335679	     -8.80206007	    -61.09384815	     12.68252748	      7.45378687	      0.00000000	      5.00646386	      7.45073905	      0.32211343	    -19.42037107	     19.92103883	     -3.65671153	      0.00000000	    -24.68171088	     -2.51227763	     -2.08403717
      6.38000000	      5.50452017	      2.07021150	      4.22152685	      1.07262477	      0.91470290	      0.19364981	      5.14802314	     -6.23108997	     -9.41415424	    -60.74749698	     13.91590654	      6.93174316	      0.00000000	      3.47084575	      7.25518372	      1.10552541	    -17.77482795	     19.32871175	     -4.69084887	      0.00000000	    -24.34620925	     -2.01834766	     -2.85212940
      6.39000000	      5.24748467	      1.76904312	      4.41609755	      1.08606136	      0.91727845	      0.19217812	      7.06818109	     -6.11473622	    -10.08017727	    -60.07688802	     14.97540631	      6.44200652	      0.00000000	      1.89588072	      7.07021177	      1.81930876	    -16.08517623	     18.63308059	     -5.74791125	      0.00000000	    -24.08897688	     -1.57717941	     -3.67429276
      6.40000000	      5.03471710	      1.52121796	      4.58482411	      1.09937401	      0.91958549	      0.19086134	      8.83705674	     -6.02834998	    -10.74745436	    -59.09175457	     15.94018884	      6.03909700	      0.00000000	      0.28730213	      6.91645097	      2.45527035	    -14.38833507	     17.83176242	     -6.91233565	      0.00000000	    -23.92938126	     -1.20676972	     -4.55536511
      6.41000000	      4.84447293	      1.32556564	      4.74288031	      1.11256047	      0.92156752	      0.18969874	     10.46711836	     -5.96313654	    -11.41379981	    -57.79813043	     16.83845814	      5.76876650	      0.00000000	     -1.30865961	      6.79704755	      3.04225198	    -12.73434247	     16.94728336	     -8.15219864	      0.00000000	    -23.83840946	     -0.91426093	     -5.49088337
      6.42000000	      4.66749522	      1.18151271	      4.89692582	      1.12563105	      0.92320382	      0.18869497	     11.95491069	     -5.90689841	    -12.07085889	    -56.18925830	     17.69491783	      5.64319041	      0.00000000	     -2.86442184	      6.71379080	      3.60256836	    -11.16149609	     15.98770794	     -9.46924770	      0.00000000	    -23.80112076	     -0.69517976	     -6.47868856
      6.43000000	      4.48850001	      1.09151047	      5.05538030	      1.13861142	      0.92446687	      0.18783526	     13.31166347	     -5.85889839	    -12.71617875	    -54.26685848	     18.50697519	      5.65009690	      0.00000000	     -4.35910977	      6.67119158	      4.18910504	     -9.68894095	     14.95915581	    -10.85405247	      0.00000000	    -23.78998485	     -0.55222629	     -7.48020742
